STARTFONT 2.1
COMMENT
COMMENT Converted from OpenType font "Px437_IBM_BIOS.ttf" by "otf2bdf 3.0".
COMMENT
FONT -FreeType-Px437 IBM BIOS-Medium-R-Normal--17-120-100-100-P-141-ISO10646-1
SIZE 12 100 100
FONTBOUNDINGBOX 17 17 0 -2
STARTPROPERTIES 19
FOUNDRY "FreeType"
FAMILY_NAME "Px437 IBM BIOS"
WEIGHT_NAME "Medium"
SLANT "R"
SETWIDTH_NAME "Normal"
ADD_STYLE_NAME ""
PIXEL_SIZE 17
POINT_SIZE 120
RESOLUTION_X 100
RESOLUTION_Y 100
SPACING "P"
AVERAGE_WIDTH 141
CHARSET_REGISTRY "ISO10646"
CHARSET_ENCODING "1"
FONT_ASCENT 14
FONT_DESCENT 2
COPYRIGHT "Outline (vector) version by VileR, 2020"
_OTF_FONTFILE "Px437_IBM_BIOS.ttf"
_OTF_PSNAME "Px437_IBM_BIOS"
ENDPROPERTIES
CHARS 288
STARTCHAR 0000
ENCODING 0
SWIDTH 1020 0
DWIDTH 17 0
BBX 0 0 0 0
BITMAP
ENDCHAR
STARTCHAR 0001
ENCODING 1
SWIDTH 1020 0
DWIDTH 17 0
BBX 17 17 0 -2
BITMAP
3FFE00
3FFE00
C00180
C00180
CC1980
CC1980
CC1980
C00180
C00180
CFF980
CFF980
C3E180
C3E180
C00180
C00180
3FFE00
3FFE00
ENDCHAR
STARTCHAR 0002
ENCODING 2
SWIDTH 1020 0
DWIDTH 17 0
BBX 17 17 0 -2
BITMAP
3FFE00
3FFE00
FFFF80
FFFF80
F3E780
F3E780
FFFF80
FFFF80
FFFF80
F00780
F00780
FC1F80
FC1F80
FFFF80
FFFF80
3FFE00
3FFE00
ENDCHAR
STARTCHAR 0003
ENCODING 3
SWIDTH 1020 0
DWIDTH 17 0
BBX 15 15 0 0
BITMAP
3CF8
3CF8
FFFE
FFFE
FFFE
FFFE
FFFE
FFFE
FFFE
3FF8
3FF8
0FE0
0FE0
0380
0380
ENDCHAR
STARTCHAR 0004
ENCODING 4
SWIDTH 1020 0
DWIDTH 17 0
BBX 15 15 0 0
BITMAP
0380
0380
0FE0
0FE0
3FF8
3FF8
FFFE
FFFE
FFFE
3FF8
3FF8
0FE0
0FE0
0380
0380
ENDCHAR
STARTCHAR 0005
ENCODING 5
SWIDTH 1020 0
DWIDTH 17 0
BBX 15 17 0 -2
BITMAP
0FE0
0FE0
3FF8
3FF8
0FE0
0FE0
FFFE
FFFE
FFFE
FFFE
FFFE
3FF8
3FF8
0FE0
0FE0
3FF8
3FF8
ENDCHAR
STARTCHAR 0006
ENCODING 6
SWIDTH 1020 0
DWIDTH 17 0
BBX 15 17 0 -2
BITMAP
0380
0380
0380
0380
0FE0
0FE0
3FF8
3FF8
3FF8
FFFE
FFFE
3FF8
3FF8
0FE0
0FE0
3FF8
3FF8
ENDCHAR
STARTCHAR 0007
ENCODING 7
SWIDTH 1020 0
DWIDTH 17 0
BBX 9 9 4 2
BITMAP
3E00
3E00
FF80
FF80
FF80
FF80
FF80
3E00
3E00
ENDCHAR
STARTCHAR 0008
ENCODING 8
SWIDTH 1020 0
DWIDTH 17 0
BBX 17 17 0 -2
BITMAP
FFFF80
FFFF80
FFFF80
FFFF80
FC1F80
FC1F80
FC1F80
F00780
F00780
F00780
F00780
FC1F80
FC1F80
FFFF80
FFFF80
FFFF80
FFFF80
ENDCHAR
STARTCHAR 0009
ENCODING 9
SWIDTH 1020 0
DWIDTH 17 0
BBX 13 13 2 0
BITMAP
3FE0
3FE0
F078
F078
F078
C018
C018
C018
C018
F078
F078
3FE0
3FE0
ENDCHAR
STARTCHAR 000A
ENCODING 10
SWIDTH 1020 0
DWIDTH 17 0
BBX 17 17 0 -2
BITMAP
FFFF80
FFFF80
F00780
F00780
C3E180
C3E180
CFF980
CFF980
CFF980
CFF980
CFF980
C3E180
C3E180
F00780
F00780
FFFF80
FFFF80
ENDCHAR
STARTCHAR 000B
ENCODING 11
SWIDTH 1020 0
DWIDTH 17 0
BBX 17 17 0 -2
BITMAP
00FF80
00FF80
001F80
001F80
00FF80
00FF80
3FFF80
3FF980
3FF980
F0F800
F0F800
F0F800
F0F800
F0F800
F0F800
3FE000
3FE000
ENDCHAR
STARTCHAR 000C
ENCODING 12
SWIDTH 1020 0
DWIDTH 17 0
BBX 13 17 2 -2
BITMAP
3FE0
3FE0
F078
F078
F078
F078
F078
F078
F078
3FE0
3FE0
0F80
0F80
FFF8
FFF8
0F80
0F80
ENDCHAR
STARTCHAR 000D
ENCODING 13
SWIDTH 1020 0
DWIDTH 17 0
BBX 17 17 0 -2
BITMAP
0FFF80
0FFF80
0F8780
0F8780
0FFF80
0FFF80
0FFF80
0F8000
0F8000
0F8000
0F8000
3F8000
3F8000
FF8000
FF8000
FC0000
FC0000
ENDCHAR
STARTCHAR 000E
ENCODING 14
SWIDTH 1020 0
DWIDTH 17 0
BBX 17 17 0 -2
BITMAP
3FFF80
3FFF80
3C0780
3C0780
3FFF80
3FFF80
3FFF80
3C0780
3C0780
3C0780
3C0780
3C1F80
3C1F80
FC1E00
FC1E00
F00000
F00000
ENDCHAR
STARTCHAR 000F
ENCODING 15
SWIDTH 1020 0
DWIDTH 17 0
BBX 17 17 0 -2
BITMAP
C3E180
C3E180
33E600
33E600
0FF800
0FF800
FFFF80
FC1F80
FC1F80
FC1F80
FC1F80
0FF800
0FF800
33E600
33E600
C3E180
C3E180
ENDCHAR
STARTCHAR 0010
ENCODING 16
SWIDTH 1020 0
DWIDTH 17 0
BBX 15 15 0 0
BITMAP
C000
C000
FC00
FC00
FFE0
FFE0
FFFE
FFFE
FFFE
FFE0
FFE0
FC00
FC00
C000
C000
ENDCHAR
STARTCHAR 0011
ENCODING 17
SWIDTH 1020 0
DWIDTH 17 0
BBX 15 15 0 0
BITMAP
0006
0006
00FE
00FE
0FFE
0FFE
FFFE
FFFE
FFFE
0FFE
0FFE
00FE
00FE
0006
0006
ENDCHAR
STARTCHAR 0012
ENCODING 18
SWIDTH 1020 0
DWIDTH 17 0
BBX 13 17 2 -2
BITMAP
0F80
0F80
3FE0
3FE0
FFF8
FFF8
FFF8
0F80
0F80
0F80
0F80
FFF8
FFF8
3FE0
3FE0
0F80
0F80
ENDCHAR
STARTCHAR 0013
ENCODING 19
SWIDTH 1020 0
DWIDTH 17 0
BBX 13 15 2 0
BITMAP
F078
F078
F078
F078
F078
F078
F078
F078
F078
F078
F078
0000
0000
F078
F078
ENDCHAR
STARTCHAR 0014
ENCODING 20
SWIDTH 1020 0
DWIDTH 17 0
BBX 17 15 0 0
BITMAP
3FFF80
3FFF80
F3E780
F3E780
F3E780
F3E780
FFE780
3FE780
3FE780
03E780
03E780
03E780
03E780
03E780
03E780
ENDCHAR
STARTCHAR 0015
ENCODING 21
SWIDTH 1020 0
DWIDTH 17 0
BBX 17 17 0 -2
BITMAP
0FFE00
0FFE00
3C0780
3C0780
0FE000
0FE000
3FF800
3CF800
3CF800
3CF800
3CF800
0FE000
0FE000
F0F800
F0F800
3FE000
3FE000
ENDCHAR
STARTCHAR 0016
ENCODING 22
SWIDTH 1020 0
DWIDTH 17 0
BBX 13 6 2 0
BITMAP
FFF8
FFF8
FFF8
FFF8
FFF8
FFF8
ENDCHAR
STARTCHAR 0017
ENCODING 23
SWIDTH 1020 0
DWIDTH 17 0
BBX 17 17 0 -2
BITMAP
03E000
03E000
0FF800
0FF800
3FFE00
3FFE00
3FFE00
03E000
03E000
3FFE00
3FFE00
0FF800
0FF800
03E000
03E000
FFFF80
FFFF80
ENDCHAR
STARTCHAR 0018
ENCODING 24
SWIDTH 1020 0
DWIDTH 17 0
BBX 13 15 2 0
BITMAP
0F80
0F80
3FE0
3FE0
FFF8
FFF8
FFF8
0F80
0F80
0F80
0F80
0F80
0F80
0F80
0F80
ENDCHAR
STARTCHAR 0019
ENCODING 25
SWIDTH 1020 0
DWIDTH 17 0
BBX 13 15 2 0
BITMAP
0F80
0F80
0F80
0F80
0F80
0F80
0F80
0F80
0F80
FFF8
FFF8
3FE0
3FE0
0F80
0F80
ENDCHAR
STARTCHAR 001A
ENCODING 26
SWIDTH 1020 0
DWIDTH 17 0
BBX 15 11 0 2
BITMAP
03E0
03E0
00F8
00F8
FFFE
FFFE
FFFE
00F8
00F8
03E0
03E0
ENDCHAR
STARTCHAR 001B
ENCODING 27
SWIDTH 1020 0
DWIDTH 17 0
BBX 15 11 0 2
BITMAP
0F80
0F80
3C00
3C00
FFFE
FFFE
FFFE
3C00
3C00
0F80
0F80
ENDCHAR
STARTCHAR 001C
ENCODING 28
SWIDTH 1020 0
DWIDTH 17 0
BBX 15 9 0 2
BITMAP
F000
F000
F000
F000
F000
F000
F000
FFFE
FFFE
ENDCHAR
STARTCHAR 001D
ENCODING 29
SWIDTH 1020 0
DWIDTH 17 0
BBX 17 11 0 2
BITMAP
0C1800
0C1800
3C1E00
3C1E00
FFFF80
FFFF80
FFFF80
3C1E00
3C1E00
0C1800
0C1800
ENDCHAR
STARTCHAR 001E
ENCODING 30
SWIDTH 1020 0
DWIDTH 17 0
BBX 17 11 0 2
BITMAP
03E000
03E000
0FF800
0FF800
3FFE00
3FFE00
3FFE00
FFFF80
FFFF80
FFFF80
FFFF80
ENDCHAR
STARTCHAR 001F
ENCODING 31
SWIDTH 1020 0
DWIDTH 17 0
BBX 17 11 0 2
BITMAP
FFFF80
FFFF80
FFFF80
FFFF80
FFFF80
3FFE00
3FFE00
0FF800
0FF800
03E000
03E000
ENDCHAR
STARTCHAR 0020
ENCODING 32
SWIDTH 1020 0
DWIDTH 17 0
BBX 0 0 0 0
BITMAP
ENDCHAR
STARTCHAR 0021
ENCODING 33
SWIDTH 1020 0
DWIDTH 17 0
BBX 9 15 2 0
BITMAP
3E00
3E00
FF80
FF80
FF80
FF80
FF80
3E00
3E00
3E00
3E00
0000
0000
3E00
3E00
ENDCHAR
STARTCHAR 0022
ENCODING 34
SWIDTH 1020 0
DWIDTH 17 0
BBX 11 7 2 8
BITMAP
F3E0
F3E0
F3E0
F3E0
F3E0
F3E0
F3E0
ENDCHAR
STARTCHAR 0023
ENCODING 35
SWIDTH 1020 0
DWIDTH 17 0
BBX 15 15 0 0
BITMAP
3CF8
3CF8
3CF8
3CF8
FFFE
FFFE
FFFE
3CF8
3CF8
FFFE
FFFE
3CF8
3CF8
3CF8
3CF8
ENDCHAR
STARTCHAR 0024
ENCODING 36
SWIDTH 1020 0
DWIDTH 17 0
BBX 13 15 0 0
BITMAP
0F80
0F80
3FF8
3FF8
F000
F000
FFE0
3FE0
3FE0
00F8
00F8
FFE0
FFE0
0F80
0F80
ENDCHAR
STARTCHAR 0025
ENCODING 37
SWIDTH 1020 0
DWIDTH 17 0
BBX 15 13 0 0
BITMAP
F01E
F01E
F0F8
F0F8
F3F8
03E0
03E0
0F80
0F80
3C1E
3C1E
F01E
F01E
ENDCHAR
STARTCHAR 0026
ENCODING 38
SWIDTH 1020 0
DWIDTH 17 0
BBX 15 15 0 0
BITMAP
0FE0
0FE0
3CF8
3CF8
0FE0
0FE0
3FFE
3F9E
3F9E
F3F8
F3F8
F0F8
F0F8
3F9E
3F9E
ENDCHAR
STARTCHAR 0027
ENCODING 39
SWIDTH 1020 0
DWIDTH 17 0
BBX 6 7 0 8
BITMAP
3C
3C
3C
3C
F0
F0
F0
ENDCHAR
STARTCHAR 0028
ENCODING 40
SWIDTH 1020 0
DWIDTH 17 0
BBX 9 15 2 0
BITMAP
0F80
0F80
3E00
3E00
F000
F000
F000
F000
F000
F000
F000
3E00
3E00
0F80
0F80
ENDCHAR
STARTCHAR 0029
ENCODING 41
SWIDTH 1020 0
DWIDTH 17 0
BBX 9 15 2 0
BITMAP
F000
F000
3E00
3E00
0F80
0F80
0F80
0F80
0F80
0F80
0F80
3E00
3E00
F000
F000
ENDCHAR
STARTCHAR 002A
ENCODING 42
SWIDTH 1020 0
DWIDTH 17 0
BBX 17 11 0 2
BITMAP
3C1E00
3C1E00
0FF800
0FF800
FFFF80
FFFF80
FFFF80
0FF800
0FF800
3C1E00
3C1E00
ENDCHAR
STARTCHAR 002B
ENCODING 43
SWIDTH 1020 0
DWIDTH 17 0
BBX 13 11 0 2
BITMAP
0F80
0F80
0F80
0F80
FFF8
FFF8
FFF8
0F80
0F80
0F80
0F80
ENDCHAR
STARTCHAR 002C
ENCODING 44
SWIDTH 1020 0
DWIDTH 17 0
BBX 7 6 2 -2
BITMAP
3E
3E
3E
3E
F0
F0
ENDCHAR
STARTCHAR 002D
ENCODING 45
SWIDTH 1020 0
DWIDTH 17 0
BBX 13 3 0 6
BITMAP
FFF8
FFF8
FFF8
ENDCHAR
STARTCHAR 002E
ENCODING 46
SWIDTH 1020 0
DWIDTH 17 0
BBX 5 4 4 0
BITMAP
F8
F8
F8
F8
ENDCHAR
STARTCHAR 002F
ENCODING 47
SWIDTH 1020 0
DWIDTH 17 0
BBX 15 15 0 0
BITMAP
001E
001E
00F8
00F8
03E0
03E0
0FE0
0F80
0F80
3C00
3C00
F000
F000
C000
C000
ENDCHAR
STARTCHAR 0030
ENCODING 48
SWIDTH 1020 0
DWIDTH 17 0
BBX 15 15 0 0
BITMAP
3FF8
3FF8
F01E
F01E
F0FE
F0FE
F3FE
F3FE
F3FE
FF9E
FF9E
FC1E
FC1E
3FF8
3FF8
ENDCHAR
STARTCHAR 0031
ENCODING 49
SWIDTH 1020 0
DWIDTH 17 0
BBX 13 15 0 0
BITMAP
0F80
0F80
3F80
3F80
0F80
0F80
0F80
0F80
0F80
0F80
0F80
0F80
0F80
FFF8
FFF8
ENDCHAR
STARTCHAR 0032
ENCODING 50
SWIDTH 1020 0
DWIDTH 17 0
BBX 13 15 0 0
BITMAP
3FE0
3FE0
F0F8
F0F8
00F8
00F8
0FF8
0FE0
0FE0
3C00
3C00
F0F8
F0F8
FFF8
FFF8
ENDCHAR
STARTCHAR 0033
ENCODING 51
SWIDTH 1020 0
DWIDTH 17 0
BBX 13 15 0 0
BITMAP
3FE0
3FE0
F0F8
F0F8
00F8
00F8
0FF8
0FE0
0FE0
00F8
00F8
F0F8
F0F8
3FE0
3FE0
ENDCHAR
STARTCHAR 0034
ENCODING 52
SWIDTH 1020 0
DWIDTH 17 0
BBX 15 15 0 0
BITMAP
03F8
03F8
0FF8
0FF8
3CF8
3CF8
FCF8
F0F8
F0F8
FFFE
FFFE
00F8
00F8
03FE
03FE
ENDCHAR
STARTCHAR 0035
ENCODING 53
SWIDTH 1020 0
DWIDTH 17 0
BBX 13 15 0 0
BITMAP
FFF8
FFF8
F000
F000
FFE0
FFE0
FFF8
00F8
00F8
00F8
00F8
F0F8
F0F8
3FE0
3FE0
ENDCHAR
STARTCHAR 0036
ENCODING 54
SWIDTH 1020 0
DWIDTH 17 0
BBX 13 15 0 0
BITMAP
0FE0
0FE0
3C00
3C00
F000
F000
FFE0
FFE0
FFE0
F0F8
F0F8
F0F8
F0F8
3FE0
3FE0
ENDCHAR
STARTCHAR 0037
ENCODING 55
SWIDTH 1020 0
DWIDTH 17 0
BBX 13 15 0 0
BITMAP
FFF8
FFF8
F0F8
F0F8
00F8
00F8
03F8
03E0
03E0
0F80
0F80
0F80
0F80
0F80
0F80
ENDCHAR
STARTCHAR 0038
ENCODING 56
SWIDTH 1020 0
DWIDTH 17 0
BBX 13 15 0 0
BITMAP
3FE0
3FE0
F0F8
F0F8
F0F8
F0F8
FFF8
3FE0
3FE0
F0F8
F0F8
F0F8
F0F8
3FE0
3FE0
ENDCHAR
STARTCHAR 0039
ENCODING 57
SWIDTH 1020 0
DWIDTH 17 0
BBX 13 15 0 0
BITMAP
3FE0
3FE0
F0F8
F0F8
F0F8
F0F8
FFF8
3FF8
3FF8
00F8
00F8
03E0
03E0
3F80
3F80
ENDCHAR
STARTCHAR 003A
ENCODING 58
SWIDTH 1020 0
DWIDTH 17 0
BBX 5 13 4 0
BITMAP
F8
F8
F8
F8
F8
00
00
00
00
F8
F8
F8
F8
ENDCHAR
STARTCHAR 003B
ENCODING 59
SWIDTH 1020 0
DWIDTH 17 0
BBX 7 15 2 -2
BITMAP
3E
3E
3E
3E
3E
00
00
00
00
3E
3E
3E
3E
F0
F0
ENDCHAR
STARTCHAR 003C
ENCODING 60
SWIDTH 1020 0
DWIDTH 17 0
BBX 11 15 0 0
BITMAP
03E0
03E0
0F80
0F80
3C00
3C00
FC00
F000
F000
3C00
3C00
0F80
0F80
03E0
03E0
ENDCHAR
STARTCHAR 003D
ENCODING 61
SWIDTH 1020 0
DWIDTH 17 0
BBX 13 9 0 2
BITMAP
FFF8
FFF8
FFF8
0000
0000
0000
0000
FFF8
FFF8
ENDCHAR
STARTCHAR 003E
ENCODING 62
SWIDTH 1020 0
DWIDTH 17 0
BBX 11 15 2 0
BITMAP
F000
F000
3E00
3E00
0F80
0F80
0FE0
03E0
03E0
0F80
0F80
3E00
3E00
F000
F000
ENDCHAR
STARTCHAR 003F
ENCODING 63
SWIDTH 1020 0
DWIDTH 17 0
BBX 13 15 0 0
BITMAP
3FE0
3FE0
F0F8
F0F8
00F8
00F8
03F8
03E0
03E0
0F80
0F80
0000
0000
0F80
0F80
ENDCHAR
STARTCHAR 0040
ENCODING 64
SWIDTH 1020 0
DWIDTH 17 0
BBX 15 15 0 0
BITMAP
3FF8
3FF8
F01E
F01E
F3FE
F3FE
F3FE
F3FE
F3FE
F3FE
F3FE
F000
F000
3FE0
3FE0
ENDCHAR
STARTCHAR 0041
ENCODING 65
SWIDTH 1020 0
DWIDTH 17 0
BBX 13 15 0 0
BITMAP
0F80
0F80
3FE0
3FE0
F0F8
F0F8
F0F8
F0F8
F0F8
FFF8
FFF8
F0F8
F0F8
F0F8
F0F8
ENDCHAR
STARTCHAR 0042
ENCODING 66
SWIDTH 1020 0
DWIDTH 17 0
BBX 15 15 0 0
BITMAP
FFF8
FFF8
3C1E
3C1E
3C1E
3C1E
3FFE
3FF8
3FF8
3C1E
3C1E
3C1E
3C1E
FFF8
FFF8
ENDCHAR
STARTCHAR 0043
ENCODING 67
SWIDTH 1020 0
DWIDTH 17 0
BBX 15 15 0 0
BITMAP
0FF8
0FF8
3C1E
3C1E
F000
F000
F000
F000
F000
F000
F000
3C1E
3C1E
0FF8
0FF8
ENDCHAR
STARTCHAR 0044
ENCODING 68
SWIDTH 1020 0
DWIDTH 17 0
BBX 15 15 0 0
BITMAP
FFE0
FFE0
3CF8
3CF8
3C1E
3C1E
3C1E
3C1E
3C1E
3C1E
3C1E
3CF8
3CF8
FFE0
FFE0
ENDCHAR
STARTCHAR 0045
ENCODING 69
SWIDTH 1020 0
DWIDTH 17 0
BBX 15 15 0 0
BITMAP
FFFE
FFFE
3C06
3C06
3CE0
3CE0
3FE0
3FE0
3FE0
3CE0
3CE0
3C06
3C06
FFFE
FFFE
ENDCHAR
STARTCHAR 0046
ENCODING 70
SWIDTH 1020 0
DWIDTH 17 0
BBX 15 15 0 0
BITMAP
FFFE
FFFE
3C06
3C06
3CE0
3CE0
3FE0
3FE0
3FE0
3CE0
3CE0
3C00
3C00
FF80
FF80
ENDCHAR
STARTCHAR 0047
ENCODING 71
SWIDTH 1020 0
DWIDTH 17 0
BBX 15 15 0 0
BITMAP
0FF8
0FF8
3C1E
3C1E
F000
F000
F000
F000
F000
F0FE
F0FE
3C1E
3C1E
0FFE
0FFE
ENDCHAR
STARTCHAR 0048
ENCODING 72
SWIDTH 1020 0
DWIDTH 17 0
BBX 13 15 0 0
BITMAP
F0F8
F0F8
F0F8
F0F8
F0F8
F0F8
FFF8
FFF8
FFF8
F0F8
F0F8
F0F8
F0F8
F0F8
F0F8
ENDCHAR
STARTCHAR 0049
ENCODING 73
SWIDTH 1020 0
DWIDTH 17 0
BBX 9 15 2 0
BITMAP
FF80
FF80
3E00
3E00
3E00
3E00
3E00
3E00
3E00
3E00
3E00
3E00
3E00
FF80
FF80
ENDCHAR
STARTCHAR 004A
ENCODING 74
SWIDTH 1020 0
DWIDTH 17 0
BBX 15 15 0 0
BITMAP
03FE
03FE
00F8
00F8
00F8
00F8
00F8
00F8
00F8
F0F8
F0F8
F0F8
F0F8
3FE0
3FE0
ENDCHAR
STARTCHAR 004B
ENCODING 75
SWIDTH 1020 0
DWIDTH 17 0
BBX 15 15 0 0
BITMAP
FC1E
FC1E
3C1E
3C1E
3CF8
3CF8
3FF8
3FE0
3FE0
3CF8
3CF8
3C1E
3C1E
FC1E
FC1E
ENDCHAR
STARTCHAR 004C
ENCODING 76
SWIDTH 1020 0
DWIDTH 17 0
BBX 15 15 0 0
BITMAP
FF80
FF80
3C00
3C00
3C00
3C00
3C00
3C00
3C00
3C06
3C06
3C1E
3C1E
FFFE
FFFE
ENDCHAR
STARTCHAR 004D
ENCODING 77
SWIDTH 1020 0
DWIDTH 17 0
BBX 15 15 0 0
BITMAP
F01E
F01E
FCFE
FCFE
FFFE
FFFE
FFFE
FFFE
FFFE
F39E
F39E
F01E
F01E
F01E
F01E
ENDCHAR
STARTCHAR 004E
ENCODING 78
SWIDTH 1020 0
DWIDTH 17 0
BBX 15 15 0 0
BITMAP
F01E
F01E
FC1E
FC1E
FF9E
FF9E
FFFE
F3FE
F3FE
F0FE
F0FE
F01E
F01E
F01E
F01E
ENDCHAR
STARTCHAR 004F
ENCODING 79
SWIDTH 1020 0
DWIDTH 17 0
BBX 15 15 0 0
BITMAP
0FE0
0FE0
3CF8
3CF8
F01E
F01E
F01E
F01E
F01E
F01E
F01E
3CF8
3CF8
0FE0
0FE0
ENDCHAR
STARTCHAR 0050
ENCODING 80
SWIDTH 1020 0
DWIDTH 17 0
BBX 15 15 0 0
BITMAP
FFF8
FFF8
3C1E
3C1E
3C1E
3C1E
3FFE
3FF8
3FF8
3C00
3C00
3C00
3C00
FF80
FF80
ENDCHAR
STARTCHAR 0051
ENCODING 81
SWIDTH 1020 0
DWIDTH 17 0
BBX 13 15 0 0
BITMAP
3FE0
3FE0
F0F8
F0F8
F0F8
F0F8
F0F8
F0F8
F0F8
F3F8
F3F8
3FE0
3FE0
03F8
03F8
ENDCHAR
STARTCHAR 0052
ENCODING 82
SWIDTH 1020 0
DWIDTH 17 0
BBX 15 15 0 0
BITMAP
FFF8
FFF8
3C1E
3C1E
3C1E
3C1E
3FFE
3FF8
3FF8
3CF8
3CF8
3C1E
3C1E
FC1E
FC1E
ENDCHAR
STARTCHAR 0053
ENCODING 83
SWIDTH 1020 0
DWIDTH 17 0
BBX 13 15 0 0
BITMAP
3FE0
3FE0
F0F8
F0F8
FC00
FC00
FF80
3F80
3F80
03F8
03F8
F0F8
F0F8
3FE0
3FE0
ENDCHAR
STARTCHAR 0054
ENCODING 84
SWIDTH 1020 0
DWIDTH 17 0
BBX 13 15 0 0
BITMAP
FFF8
FFF8
CF98
CF98
0F80
0F80
0F80
0F80
0F80
0F80
0F80
0F80
0F80
3FE0
3FE0
ENDCHAR
STARTCHAR 0055
ENCODING 85
SWIDTH 1020 0
DWIDTH 17 0
BBX 13 15 0 0
BITMAP
F0F8
F0F8
F0F8
F0F8
F0F8
F0F8
F0F8
F0F8
F0F8
F0F8
F0F8
F0F8
F0F8
FFF8
FFF8
ENDCHAR
STARTCHAR 0056
ENCODING 86
SWIDTH 1020 0
DWIDTH 17 0
BBX 13 15 0 0
BITMAP
F0F8
F0F8
F0F8
F0F8
F0F8
F0F8
F0F8
F0F8
F0F8
F0F8
F0F8
3FE0
3FE0
0F80
0F80
ENDCHAR
STARTCHAR 0057
ENCODING 87
SWIDTH 1020 0
DWIDTH 17 0
BBX 15 15 0 0
BITMAP
F01E
F01E
F01E
F01E
F01E
F01E
F39E
F39E
F39E
FFFE
FFFE
FCFE
FCFE
F01E
F01E
ENDCHAR
STARTCHAR 0058
ENCODING 88
SWIDTH 1020 0
DWIDTH 17 0
BBX 15 15 0 0
BITMAP
F01E
F01E
F01E
F01E
3CF8
3CF8
3FF8
0FE0
0FE0
0FE0
0FE0
3CF8
3CF8
F01E
F01E
ENDCHAR
STARTCHAR 0059
ENCODING 89
SWIDTH 1020 0
DWIDTH 17 0
BBX 13 15 0 0
BITMAP
F0F8
F0F8
F0F8
F0F8
F0F8
F0F8
FFF8
3FE0
3FE0
0F80
0F80
0F80
0F80
3FE0
3FE0
ENDCHAR
STARTCHAR 005A
ENCODING 90
SWIDTH 1020 0
DWIDTH 17 0
BBX 15 15 0 0
BITMAP
FFFE
FFFE
F01E
F01E
C0F8
C0F8
C3F8
03E0
03E0
0F86
0F86
3C1E
3C1E
FFFE
FFFE
ENDCHAR
STARTCHAR 005B
ENCODING 91
SWIDTH 1020 0
DWIDTH 17 0
BBX 9 15 2 0
BITMAP
FF80
FF80
F000
F000
F000
F000
F000
F000
F000
F000
F000
F000
F000
FF80
FF80
ENDCHAR
STARTCHAR 005C
ENCODING 92
SWIDTH 1020 0
DWIDTH 17 0
BBX 15 15 0 0
BITMAP
F000
F000
3C00
3C00
0F80
0F80
0FE0
03E0
03E0
00F8
00F8
001E
001E
0006
0006
ENDCHAR
STARTCHAR 005D
ENCODING 93
SWIDTH 1020 0
DWIDTH 17 0
BBX 9 15 2 0
BITMAP
FF80
FF80
0F80
0F80
0F80
0F80
0F80
0F80
0F80
0F80
0F80
0F80
0F80
FF80
FF80
ENDCHAR
STARTCHAR 005E
ENCODING 94
SWIDTH 1020 0
DWIDTH 17 0
BBX 15 9 0 6
BITMAP
0380
0380
0FE0
0FE0
3CF8
3CF8
FCFE
F01E
F01E
ENDCHAR
STARTCHAR 005F
ENCODING 95
SWIDTH 1020 0
DWIDTH 17 0
BBX 17 2 0 -2
BITMAP
FFFF80
FFFF80
ENDCHAR
STARTCHAR 0060
ENCODING 96
SWIDTH 1020 0
DWIDTH 17 0
BBX 7 7 4 8
BITMAP
F8
F8
F8
F8
3E
3E
3E
ENDCHAR
STARTCHAR 0061
ENCODING 97
SWIDTH 1020 0
DWIDTH 17 0
BBX 15 11 0 0
BITMAP
3FE0
3FE0
3FF8
00F8
00F8
3FF8
3FF8
F0F8
F0F8
3F9E
3F9E
ENDCHAR
STARTCHAR 0062
ENCODING 98
SWIDTH 1020 0
DWIDTH 17 0
BBX 15 15 0 0
BITMAP
FC00
FC00
3C00
3C00
3C00
3C00
3FF8
3FF8
3FF8
3C1E
3C1E
3C1E
3C1E
F3F8
F3F8
ENDCHAR
STARTCHAR 0063
ENCODING 99
SWIDTH 1020 0
DWIDTH 17 0
BBX 13 11 0 0
BITMAP
3FE0
3FE0
FFF8
F0F8
F0F8
F000
F000
F0F8
F0F8
3FE0
3FE0
ENDCHAR
STARTCHAR 0064
ENCODING 100
SWIDTH 1020 0
DWIDTH 17 0
BBX 15 15 0 0
BITMAP
03F8
03F8
00F8
00F8
00F8
00F8
3FF8
3FF8
3FF8
F0F8
F0F8
F0F8
F0F8
3F9E
3F9E
ENDCHAR
STARTCHAR 0065
ENCODING 101
SWIDTH 1020 0
DWIDTH 17 0
BBX 13 11 0 0
BITMAP
3FE0
3FE0
FFF8
F0F8
F0F8
FFF8
FFF8
F000
F000
3FE0
3FE0
ENDCHAR
STARTCHAR 0066
ENCODING 102
SWIDTH 1020 0
DWIDTH 17 0
BBX 13 15 0 0
BITMAP
0FE0
0FE0
3CF8
3CF8
3C00
3C00
FF80
FF80
FF80
3C00
3C00
3C00
3C00
FF80
FF80
ENDCHAR
STARTCHAR 0067
ENCODING 103
SWIDTH 1020 0
DWIDTH 17 0
BBX 15 13 0 -2
BITMAP
3F9E
3F9E
FFFE
F0F8
F0F8
F0F8
F0F8
3FF8
3FF8
00F8
00F8
FFE0
FFE0
ENDCHAR
STARTCHAR 0068
ENCODING 104
SWIDTH 1020 0
DWIDTH 17 0
BBX 15 15 0 0
BITMAP
FC00
FC00
3C00
3C00
3CF8
3CF8
3FFE
3F9E
3F9E
3C1E
3C1E
3C1E
3C1E
FC1E
FC1E
ENDCHAR
STARTCHAR 0069
ENCODING 105
SWIDTH 1020 0
DWIDTH 17 0
BBX 9 15 2 0
BITMAP
3E00
3E00
0000
0000
FE00
FE00
FE00
3E00
3E00
3E00
3E00
3E00
3E00
FF80
FF80
ENDCHAR
STARTCHAR 006A
ENCODING 106
SWIDTH 1020 0
DWIDTH 17 0
BBX 13 17 0 -2
BITMAP
00F8
00F8
0000
0000
00F8
00F8
00F8
00F8
00F8
00F8
00F8
F0F8
F0F8
F0F8
F0F8
3FE0
3FE0
ENDCHAR
STARTCHAR 006B
ENCODING 107
SWIDTH 1020 0
DWIDTH 17 0
BBX 15 15 0 0
BITMAP
FC00
FC00
3C00
3C00
3C1E
3C1E
3CFE
3CF8
3CF8
3FE0
3FE0
3CF8
3CF8
FC1E
FC1E
ENDCHAR
STARTCHAR 006C
ENCODING 108
SWIDTH 1020 0
DWIDTH 17 0
BBX 9 15 2 0
BITMAP
FE00
FE00
3E00
3E00
3E00
3E00
3E00
3E00
3E00
3E00
3E00
3E00
3E00
FF80
FF80
ENDCHAR
STARTCHAR 006D
ENCODING 109
SWIDTH 1020 0
DWIDTH 17 0
BBX 15 11 0 0
BITMAP
F0F8
F0F8
FFFE
FFFE
FFFE
FFFE
FFFE
F39E
F39E
F01E
F01E
ENDCHAR
STARTCHAR 006E
ENCODING 110
SWIDTH 1020 0
DWIDTH 17 0
BBX 13 11 0 0
BITMAP
FFE0
FFE0
FFF8
F0F8
F0F8
F0F8
F0F8
F0F8
F0F8
F0F8
F0F8
ENDCHAR
STARTCHAR 006F
ENCODING 111
SWIDTH 1020 0
DWIDTH 17 0
BBX 13 11 0 0
BITMAP
3FE0
3FE0
FFF8
F0F8
F0F8
F0F8
F0F8
F0F8
F0F8
3FE0
3FE0
ENDCHAR
STARTCHAR 0070
ENCODING 112
SWIDTH 1020 0
DWIDTH 17 0
BBX 15 13 0 -2
BITMAP
F3F8
F3F8
FFFE
3C1E
3C1E
3C1E
3C1E
3FF8
3FF8
3C00
3C00
FF80
FF80
ENDCHAR
STARTCHAR 0071
ENCODING 113
SWIDTH 1020 0
DWIDTH 17 0
BBX 15 13 0 -2
BITMAP
3F9E
3F9E
FFFE
F0F8
F0F8
F0F8
F0F8
3FF8
3FF8
00F8
00F8
03FE
03FE
ENDCHAR
STARTCHAR 0072
ENCODING 114
SWIDTH 1020 0
DWIDTH 17 0
BBX 15 11 0 0
BITMAP
F3F8
F3F8
FFFE
3F9E
3F9E
3C1E
3C1E
3C00
3C00
FF80
FF80
ENDCHAR
STARTCHAR 0073
ENCODING 115
SWIDTH 1020 0
DWIDTH 17 0
BBX 13 11 0 0
BITMAP
3FF8
3FF8
FFF8
F000
F000
3FE0
3FE0
00F8
00F8
FFE0
FFE0
ENDCHAR
STARTCHAR 0074
ENCODING 116
SWIDTH 1020 0
DWIDTH 17 0
BBX 11 15 2 0
BITMAP
0E00
0E00
3E00
3E00
FFE0
FFE0
FFE0
3E00
3E00
3E00
3E00
3E60
3E60
0F80
0F80
ENDCHAR
STARTCHAR 0075
ENCODING 117
SWIDTH 1020 0
DWIDTH 17 0
BBX 15 11 0 0
BITMAP
F0F8
F0F8
F0F8
F0F8
F0F8
F0F8
F0F8
F0F8
F0F8
3F9E
3F9E
ENDCHAR
STARTCHAR 0076
ENCODING 118
SWIDTH 1020 0
DWIDTH 17 0
BBX 13 11 0 0
BITMAP
F0F8
F0F8
F0F8
F0F8
F0F8
F0F8
F0F8
3FE0
3FE0
0F80
0F80
ENDCHAR
STARTCHAR 0077
ENCODING 119
SWIDTH 1020 0
DWIDTH 17 0
BBX 15 11 0 0
BITMAP
F01E
F01E
F39E
F39E
F39E
FFFE
FFFE
FFFE
FFFE
3CF8
3CF8
ENDCHAR
STARTCHAR 0078
ENCODING 120
SWIDTH 1020 0
DWIDTH 17 0
BBX 15 11 0 0
BITMAP
F01E
F01E
FCFE
3CF8
3CF8
0FE0
0FE0
3CF8
3CF8
F01E
F01E
ENDCHAR
STARTCHAR 0079
ENCODING 121
SWIDTH 1020 0
DWIDTH 17 0
BBX 13 13 0 -2
BITMAP
F0F8
F0F8
F0F8
F0F8
F0F8
F0F8
F0F8
3FF8
3FF8
00F8
00F8
FFE0
FFE0
ENDCHAR
STARTCHAR 007A
ENCODING 122
SWIDTH 1020 0
DWIDTH 17 0
BBX 13 11 0 0
BITMAP
FFF8
FFF8
FFF8
C3E0
C3E0
0F80
0F80
3C18
3C18
FFF8
FFF8
ENDCHAR
STARTCHAR 007B
ENCODING 123
SWIDTH 1020 0
DWIDTH 17 0
BBX 13 15 0 0
BITMAP
03F8
03F8
0F80
0F80
0F80
0F80
FF80
FC00
FC00
0F80
0F80
0F80
0F80
03F8
03F8
ENDCHAR
STARTCHAR 007C
ENCODING 124
SWIDTH 1020 0
DWIDTH 17 0
BBX 5 15 6 0
BITMAP
F8
F8
F8
F8
F8
F8
F8
00
00
F8
F8
F8
F8
F8
F8
ENDCHAR
STARTCHAR 007D
ENCODING 125
SWIDTH 1020 0
DWIDTH 17 0
BBX 13 15 0 0
BITMAP
FC00
FC00
0F80
0F80
0F80
0F80
0FF8
03F8
03F8
0F80
0F80
0F80
0F80
FC00
FC00
ENDCHAR
STARTCHAR 007E
ENCODING 126
SWIDTH 1020 0
DWIDTH 17 0
BBX 15 4 0 11
BITMAP
3F9E
3F9E
F3F8
F3F8
ENDCHAR
STARTCHAR 007F
ENCODING 127
SWIDTH 1020 0
DWIDTH 17 0
BBX 15 13 0 0
BITMAP
0380
0380
0FE0
0FE0
3FF8
3CF8
3CF8
F01E
F01E
F01E
F01E
FFFE
FFFE
ENDCHAR
STARTCHAR 00A0
ENCODING 160
SWIDTH 1020 0
DWIDTH 17 0
BBX 0 0 0 0
BITMAP
ENDCHAR
STARTCHAR 00A1
ENCODING 161
SWIDTH 1020 0
DWIDTH 17 0
BBX 5 15 6 0
BITMAP
F8
F8
F8
F8
00
00
F8
F8
F8
F8
F8
F8
F8
F8
F8
ENDCHAR
STARTCHAR 00A2
ENCODING 162
SWIDTH 1020 0
DWIDTH 17 0
BBX 15 17 0 -2
BITMAP
03E0
03E0
03E0
03E0
3FFE
3FFE
FFFE
F000
F000
F000
F000
3FFE
3FFE
03E0
03E0
03E0
03E0
ENDCHAR
STARTCHAR 00A3
ENCODING 163
SWIDTH 1020 0
DWIDTH 17 0
BBX 15 15 0 0
BITMAP
0FE0
0FE0
3CF8
3CF8
3C18
3C18
FF98
FF80
FF80
3C00
3C00
FC1E
FC1E
FFF8
FFF8
ENDCHAR
STARTCHAR 00A5
ENCODING 165
SWIDTH 1020 0
DWIDTH 17 0
BBX 13 17 0 -2
BITMAP
F0F8
F0F8
F0F8
F0F8
3FE0
3FE0
FFF8
FFF8
FFF8
0F80
0F80
FFF8
FFF8
0F80
0F80
0F80
0F80
ENDCHAR
STARTCHAR 00A7
ENCODING 167
SWIDTH 1020 0
DWIDTH 17 0
BBX 17 17 0 -2
BITMAP
0FFE00
0FFE00
3C0780
3C0780
0FE000
0FE000
3FF800
3CF800
3CF800
3CF800
3CF800
0FE000
0FE000
F0F800
F0F800
3FE000
3FE000
ENDCHAR
STARTCHAR 00AA
ENCODING 170
SWIDTH 1020 0
DWIDTH 17 0
BBX 13 13 2 2
BITMAP
3FE0
3FE0
F3E0
F3E0
F3E0
F3E0
FFF8
3FF8
3FF8
0000
0000
FFF8
FFF8
ENDCHAR
STARTCHAR 00AB
ENCODING 171
SWIDTH 1020 0
DWIDTH 17 0
BBX 17 11 0 2
BITMAP
0F8780
0F8780
3C1E00
3C1E00
FCFE00
F0F800
F0F800
3C1E00
3C1E00
0F8780
0F8780
ENDCHAR
STARTCHAR 00AC
ENCODING 172
SWIDTH 1020 0
DWIDTH 17 0
BBX 13 7 0 2
BITMAP
FFF8
FFF8
FFF8
00F8
00F8
00F8
00F8
ENDCHAR
STARTCHAR 00B0
ENCODING 176
SWIDTH 1020 0
DWIDTH 17 0
BBX 11 9 2 6
BITMAP
3F80
3F80
F3E0
F3E0
F3E0
F3E0
FFE0
3F80
3F80
ENDCHAR
STARTCHAR 00B1
ENCODING 177
SWIDTH 1020 0
DWIDTH 17 0
BBX 13 15 0 0
BITMAP
0F80
0F80
0F80
0F80
FFF8
FFF8
FFF8
0F80
0F80
0F80
0F80
0000
0000
FFF8
FFF8
ENDCHAR
STARTCHAR 00B2
ENCODING 178
SWIDTH 1020 0
DWIDTH 17 0
BBX 9 11 2 4
BITMAP
FE00
FE00
0F80
0F80
3E00
3E00
FE00
F000
F000
FF80
FF80
ENDCHAR
STARTCHAR 00B5
ENCODING 181
SWIDTH 1020 0
DWIDTH 17 0
BBX 15 15 0 -2
BITMAP
3C1E
3C1E
3C1E
3C1E
3C1E
3C1E
3C1E
3C1E
3C1E
3FF8
3FF8
3C00
3C00
F000
F000
ENDCHAR
STARTCHAR 00B6
ENCODING 182
SWIDTH 1020 0
DWIDTH 17 0
BBX 17 15 0 0
BITMAP
3FFF80
3FFF80
F3E780
F3E780
F3E780
F3E780
FFE780
3FE780
3FE780
03E780
03E780
03E780
03E780
03E780
03E780
ENDCHAR
STARTCHAR 00B7
ENCODING 183
SWIDTH 1020 0
DWIDTH 17 0
BBX 5 2 6 4
BITMAP
F8
F8
ENDCHAR
STARTCHAR 00BA
ENCODING 186
SWIDTH 1020 0
DWIDTH 17 0
BBX 11 13 2 2
BITMAP
3F80
3F80
F3E0
F3E0
F3E0
F3E0
FFE0
3F80
3F80
0000
0000
FFE0
FFE0
ENDCHAR
STARTCHAR 00BB
ENCODING 187
SWIDTH 1020 0
DWIDTH 17 0
BBX 17 11 0 2
BITMAP
F0F800
F0F800
3C1E00
3C1E00
3F9F80
0F8780
0F8780
3C1E00
3C1E00
F0F800
F0F800
ENDCHAR
STARTCHAR 00BC
ENCODING 188
SWIDTH 1020 0
DWIDTH 17 0
BBX 17 17 0 -2
BITMAP
F00780
F00780
F01E00
F01E00
F0F800
F0F800
F3FF80
F3E780
F3E780
0F9F80
0F9F80
3CFF80
3CFF80
F0FF80
F0FF80
000780
000780
ENDCHAR
STARTCHAR 00BD
ENCODING 189
SWIDTH 1020 0
DWIDTH 17 0
BBX 17 17 0 -2
BITMAP
F00780
F00780
F01E00
F01E00
F0F800
F0F800
F3FE00
F3FE00
F3FE00
0F8780
0F8780
3C1E00
3C1E00
F0F800
F0F800
00FF80
00FF80
ENDCHAR
STARTCHAR 00BF
ENCODING 191
SWIDTH 1020 0
DWIDTH 17 0
BBX 13 15 0 0
BITMAP
0F80
0F80
0000
0000
0F80
0F80
3F80
3C00
3C00
F000
F000
F0F8
F0F8
3FE0
3FE0
ENDCHAR
STARTCHAR 00C4
ENCODING 196
SWIDTH 1020 0
DWIDTH 17 0
BBX 15 15 0 0
BITMAP
F01E
F01E
0FE0
0FE0
3CF8
3CF8
FCFE
F01E
F01E
FFFE
FFFE
F01E
F01E
F01E
F01E
ENDCHAR
STARTCHAR 00C5
ENCODING 197
SWIDTH 1020 0
DWIDTH 17 0
BBX 13 15 0 0
BITMAP
0F80
0F80
0F80
0F80
0000
0000
3FE0
3FE0
3FE0
F0F8
F0F8
FFF8
FFF8
F0F8
F0F8
ENDCHAR
STARTCHAR 00C6
ENCODING 198
SWIDTH 1020 0
DWIDTH 17 0
BBX 15 15 0 0
BITMAP
0FFE
0FFE
3CF8
3CF8
F0F8
F0F8
FFFE
FFFE
FFFE
F0F8
F0F8
F0F8
F0F8
F0FE
F0FE
ENDCHAR
STARTCHAR 00C7
ENCODING 199
SWIDTH 1020 0
DWIDTH 17 0
BBX 13 17 0 -2
BITMAP
3FE0
3FE0
F0F8
F0F8
F000
F000
F0F8
F0F8
F0F8
3FE0
3FE0
03E0
03E0
00F8
00F8
3FE0
3FE0
ENDCHAR
STARTCHAR 00C9
ENCODING 201
SWIDTH 1020 0
DWIDTH 17 0
BBX 13 15 0 0
BITMAP
03F8
03F8
0000
0000
FFF8
FFF8
FFF8
3C00
3C00
3FE0
3FE0
3C00
3C00
FFF8
FFF8
ENDCHAR
STARTCHAR 00D1
ENCODING 209
SWIDTH 1020 0
DWIDTH 17 0
BBX 13 15 0 0
BITMAP
FFF8
FFF8
0000
0000
F0F8
F0F8
FCF8
FCF8
FCF8
FFF8
FFF8
F3F8
F3F8
F0F8
F0F8
ENDCHAR
STARTCHAR 00D6
ENCODING 214
SWIDTH 1020 0
DWIDTH 17 0
BBX 17 15 0 0
BITMAP
F00780
F00780
03E000
03E000
0FF800
0FF800
3FFE00
3C1E00
3C1E00
3C1E00
3C1E00
0FF800
0FF800
03E000
03E000
ENDCHAR
STARTCHAR 00DC
ENCODING 220
SWIDTH 1020 0
DWIDTH 17 0
BBX 13 15 0 0
BITMAP
F0F8
F0F8
0000
0000
F0F8
F0F8
F0F8
F0F8
F0F8
F0F8
F0F8
F0F8
F0F8
3FE0
3FE0
ENDCHAR
STARTCHAR 00DF
ENCODING 223
SWIDTH 1020 0
DWIDTH 17 0
BBX 13 15 0 -2
BITMAP
3FE0
3FE0
F0F8
F0F8
FFF8
FFE0
FFE0
F0F8
F0F8
FFE0
FFE0
F000
F000
F000
F000
ENDCHAR
STARTCHAR 00E0
ENCODING 224
SWIDTH 1020 0
DWIDTH 17 0
BBX 15 15 0 0
BITMAP
FC00
FC00
0000
0000
3FE0
3FE0
3FF8
00F8
00F8
3FF8
3FF8
F0F8
F0F8
3FFE
3FFE
ENDCHAR
STARTCHAR 00E1
ENCODING 225
SWIDTH 1020 0
DWIDTH 17 0
BBX 15 15 0 0
BITMAP
03F8
03F8
0000
0000
3FE0
3FE0
3FF8
00F8
00F8
3FF8
3FF8
F0F8
F0F8
3FFE
3FFE
ENDCHAR
STARTCHAR 00E2
ENCODING 226
SWIDTH 1020 0
DWIDTH 17 0
BBX 17 15 0 0
BITMAP
3FFE00
3FFE00
F00780
F00780
0FF800
0FF800
0FFE00
001E00
001E00
0FFE00
0FFE00
3C1E00
3C1E00
0FFF80
0FFF80
ENDCHAR
STARTCHAR 00E4
ENCODING 228
SWIDTH 1020 0
DWIDTH 17 0
BBX 15 15 0 0
BITMAP
F0F8
F0F8
0000
0000
3FE0
3FE0
3FF8
00F8
00F8
3FF8
3FF8
F0F8
F0F8
3FFE
3FFE
ENDCHAR
STARTCHAR 00E5
ENCODING 229
SWIDTH 1020 0
DWIDTH 17 0
BBX 15 15 0 0
BITMAP
0F80
0F80
0F80
0F80
3FE0
3FE0
3FF8
00F8
00F8
3FF8
3FF8
F0F8
F0F8
3FFE
3FFE
ENDCHAR
STARTCHAR 00E6
ENCODING 230
SWIDTH 1020 0
DWIDTH 17 0
BBX 17 11 0 0
BITMAP
3FFF80
3FFF80
3FFF80
00F800
00F800
3FFF80
3FFF80
F0F800
F0F800
3FFF80
3FFF80
ENDCHAR
STARTCHAR 00E7
ENCODING 231
SWIDTH 1020 0
DWIDTH 17 0
BBX 13 13 0 -2
BITMAP
3FE0
3FE0
FFE0
F000
F000
F000
F000
3FE0
3FE0
00F8
00F8
0FE0
0FE0
ENDCHAR
STARTCHAR 00E8
ENCODING 232
SWIDTH 1020 0
DWIDTH 17 0
BBX 13 15 0 0
BITMAP
FC00
FC00
0000
0000
3FE0
3FE0
FFF8
F0F8
F0F8
FFF8
FFF8
F000
F000
3FE0
3FE0
ENDCHAR
STARTCHAR 00E9
ENCODING 233
SWIDTH 1020 0
DWIDTH 17 0
BBX 13 15 0 0
BITMAP
03F8
03F8
0000
0000
3FE0
3FE0
FFF8
F0F8
F0F8
FFF8
FFF8
F000
F000
3FE0
3FE0
ENDCHAR
STARTCHAR 00EA
ENCODING 234
SWIDTH 1020 0
DWIDTH 17 0
BBX 17 15 0 0
BITMAP
3FFE00
3FFE00
F00780
F00780
0FF800
0FF800
3FFE00
3C1E00
3C1E00
3FFE00
3FFE00
3C0000
3C0000
0FF800
0FF800
ENDCHAR
STARTCHAR 00EB
ENCODING 235
SWIDTH 1020 0
DWIDTH 17 0
BBX 13 15 0 0
BITMAP
F0F8
F0F8
0000
0000
3FE0
3FE0
FFF8
F0F8
F0F8
FFF8
FFF8
F000
F000
3FE0
3FE0
ENDCHAR
STARTCHAR 00EC
ENCODING 236
SWIDTH 1020 0
DWIDTH 17 0
BBX 11 15 0 0
BITMAP
FC00
FC00
0000
0000
3F80
3F80
3F80
0F80
0F80
0F80
0F80
0F80
0F80
3FE0
3FE0
ENDCHAR
STARTCHAR 00ED
ENCODING 237
SWIDTH 1020 0
DWIDTH 17 0
BBX 9 15 2 0
BITMAP
3F80
3F80
0000
0000
FE00
FE00
FE00
3E00
3E00
3E00
3E00
3E00
3E00
FF80
FF80
ENDCHAR
STARTCHAR 00EE
ENCODING 238
SWIDTH 1020 0
DWIDTH 17 0
BBX 15 15 0 0
BITMAP
3FF8
3FF8
F01E
F01E
0FE0
0FE0
0FE0
03E0
03E0
03E0
03E0
03E0
03E0
0FF8
0FF8
ENDCHAR
STARTCHAR 00EF
ENCODING 239
SWIDTH 1020 0
DWIDTH 17 0
BBX 13 15 0 0
BITMAP
F0F8
F0F8
0000
0000
3F80
3F80
3F80
0F80
0F80
0F80
0F80
0F80
0F80
3FE0
3FE0
ENDCHAR
STARTCHAR 00F1
ENCODING 241
SWIDTH 1020 0
DWIDTH 17 0
BBX 13 13 0 0
BITMAP
FFE0
FFE0
0000
0000
FFE0
FFE0
FFE0
F0F8
F0F8
F0F8
F0F8
F0F8
F0F8
ENDCHAR
STARTCHAR 00F2
ENCODING 242
SWIDTH 1020 0
DWIDTH 17 0
BBX 13 13 0 0
BITMAP
FC00
FC00
0000
0000
3FE0
3FE0
3FE0
F0F8
F0F8
F0F8
F0F8
3FE0
3FE0
ENDCHAR
STARTCHAR 00F3
ENCODING 243
SWIDTH 1020 0
DWIDTH 17 0
BBX 13 13 0 0
BITMAP
03F8
03F8
0000
0000
3FE0
3FE0
3FE0
F0F8
F0F8
F0F8
F0F8
3FE0
3FE0
ENDCHAR
STARTCHAR 00F4
ENCODING 244
SWIDTH 1020 0
DWIDTH 17 0
BBX 13 15 0 0
BITMAP
3FE0
3FE0
F0F8
F0F8
0000
0000
3FE0
3FE0
3FE0
F0F8
F0F8
F0F8
F0F8
3FE0
3FE0
ENDCHAR
STARTCHAR 00F6
ENCODING 246
SWIDTH 1020 0
DWIDTH 17 0
BBX 13 13 0 0
BITMAP
F0F8
F0F8
0000
0000
3FE0
3FE0
3FE0
F0F8
F0F8
F0F8
F0F8
3FE0
3FE0
ENDCHAR
STARTCHAR 00F7
ENCODING 247
SWIDTH 1020 0
DWIDTH 17 0
BBX 13 15 0 0
BITMAP
0F80
0F80
0F80
0F80
0000
0000
FFF8
FFF8
FFF8
0000
0000
0F80
0F80
0F80
0F80
ENDCHAR
STARTCHAR 00F9
ENCODING 249
SWIDTH 1020 0
DWIDTH 17 0
BBX 15 13 0 0
BITMAP
FC00
FC00
0000
0000
F0F8
F0F8
F0F8
F0F8
F0F8
F0F8
F0F8
3FFE
3FFE
ENDCHAR
STARTCHAR 00FA
ENCODING 250
SWIDTH 1020 0
DWIDTH 17 0
BBX 15 13 0 0
BITMAP
03F8
03F8
0000
0000
F0F8
F0F8
F0F8
F0F8
F0F8
F0F8
F0F8
3FFE
3FFE
ENDCHAR
STARTCHAR 00FB
ENCODING 251
SWIDTH 1020 0
DWIDTH 17 0
BBX 15 15 0 0
BITMAP
3FE0
3FE0
F0F8
F0F8
0000
0000
F0F8
F0F8
F0F8
F0F8
F0F8
F0F8
F0F8
3FFE
3FFE
ENDCHAR
STARTCHAR 00FC
ENCODING 252
SWIDTH 1020 0
DWIDTH 17 0
BBX 15 13 0 0
BITMAP
F0F8
F0F8
0000
0000
F0F8
F0F8
F0F8
F0F8
F0F8
F0F8
F0F8
3FFE
3FFE
ENDCHAR
STARTCHAR 00FF
ENCODING 255
SWIDTH 1020 0
DWIDTH 17 0
BBX 13 15 0 -2
BITMAP
F0F8
F0F8
0000
0000
F0F8
F0F8
F0F8
F0F8
F0F8
3FF8
3FF8
00F8
00F8
FFE0
FFE0
ENDCHAR
STARTCHAR 0192
ENCODING 402
SWIDTH 1020 0
DWIDTH 17 0
BBX 17 17 0 -2
BITMAP
00FE00
00FE00
03E780
03E780
03E000
03E000
0FF800
0FF800
0FF800
03E000
03E000
03E000
03E000
F3E000
F3E000
3F8000
3F8000
ENDCHAR
STARTCHAR 0393
ENCODING 915
SWIDTH 1020 0
DWIDTH 17 0
BBX 13 13 0 0
BITMAP
FFF8
FFF8
F0F8
F0F8
F0F8
F000
F000
F000
F000
F000
F000
F000
F000
ENDCHAR
STARTCHAR 0398
ENCODING 920
SWIDTH 1020 0
DWIDTH 17 0
BBX 15 15 0 0
BITMAP
0FE0
0FE0
3CF8
3CF8
F01E
F01E
FFFE
FFFE
FFFE
F01E
F01E
3CF8
3CF8
0FE0
0FE0
ENDCHAR
STARTCHAR 03A3
ENCODING 931
SWIDTH 1020 0
DWIDTH 17 0
BBX 13 15 0 0
BITMAP
FFF8
FFF8
F0F8
F0F8
3C00
3C00
3F80
0F80
0F80
3C00
3C00
F0F8
F0F8
FFF8
FFF8
ENDCHAR
STARTCHAR 03A6
ENCODING 934
SWIDTH 1020 0
DWIDTH 17 0
BBX 13 17 0 -2
BITMAP
FFF8
FFF8
0F80
0F80
3FE0
3FE0
FFF8
F0F8
F0F8
F0F8
F0F8
3FE0
3FE0
0F80
0F80
FFF8
FFF8
ENDCHAR
STARTCHAR 03A9
ENCODING 937
SWIDTH 1020 0
DWIDTH 17 0
BBX 15 15 0 0
BITMAP
0FE0
0FE0
3CF8
3CF8
F01E
F01E
F01E
F01E
F01E
3CF8
3CF8
3CF8
3CF8
FCFE
FCFE
ENDCHAR
STARTCHAR 03B1
ENCODING 945
SWIDTH 1020 0
DWIDTH 17 0
BBX 15 11 0 0
BITMAP
3F9E
3F9E
FFFE
F3F8
F3F8
F0E0
F0E0
F3F8
F3F8
3F9E
3F9E
ENDCHAR
STARTCHAR 03B4
ENCODING 948
SWIDTH 1020 0
DWIDTH 17 0
BBX 13 15 0 0
BITMAP
03F8
03F8
0F80
0F80
03E0
03E0
3FF8
3FF8
3FF8
F0F8
F0F8
F0F8
F0F8
3FE0
3FE0
ENDCHAR
STARTCHAR 03B5
ENCODING 949
SWIDTH 1020 0
DWIDTH 17 0
BBX 11 15 0 0
BITMAP
0FE0
0FE0
3C00
3C00
F000
F000
FFE0
FFE0
FFE0
F000
F000
3C00
3C00
0FE0
0FE0
ENDCHAR
STARTCHAR 03C0
ENCODING 960
SWIDTH 1020 0
DWIDTH 17 0
BBX 15 13 0 0
BITMAP
FFFE
FFFE
3CF8
3CF8
3CF8
3CF8
3CF8
3CF8
3CF8
3CF8
3CF8
3CF8
3CF8
ENDCHAR
STARTCHAR 03C3
ENCODING 963
SWIDTH 1020 0
DWIDTH 17 0
BBX 15 11 0 0
BITMAP
3FFE
3FFE
FFFE
F3E0
F3E0
F3E0
F3E0
F3E0
F3E0
3F80
3F80
ENDCHAR
STARTCHAR 03C4
ENCODING 964
SWIDTH 1020 0
DWIDTH 17 0
BBX 15 13 0 0
BITMAP
3F9E
3F9E
F3F8
F3F8
F3F8
03E0
03E0
03E0
03E0
03E0
03E0
03E0
03E0
ENDCHAR
STARTCHAR 03C6
ENCODING 966
SWIDTH 1020 0
DWIDTH 17 0
BBX 17 17 0 -2
BITMAP
001E00
001E00
00F800
00F800
3FFE00
3FFE00
FFFF80
F3E780
F3E780
F3E780
F3E780
3FFE00
3FFE00
3C0000
3C0000
F00000
F00000
ENDCHAR
STARTCHAR 2022
ENCODING 8226
SWIDTH 1020 0
DWIDTH 17 0
BBX 9 9 4 2
BITMAP
3E00
3E00
FF80
FF80
FF80
FF80
FF80
3E00
3E00
ENDCHAR
STARTCHAR 203C
ENCODING 8252
SWIDTH 1020 0
DWIDTH 17 0
BBX 13 15 2 0
BITMAP
F078
F078
F078
F078
F078
F078
F078
F078
F078
F078
F078
0000
0000
F078
F078
ENDCHAR
STARTCHAR 207F
ENCODING 8319
SWIDTH 1020 0
DWIDTH 17 0
BBX 11 11 2 4
BITMAP
FF80
FF80
F3E0
F3E0
F3E0
F3E0
F3E0
F3E0
F3E0
F3E0
F3E0
ENDCHAR
STARTCHAR 20A7
ENCODING 8359
SWIDTH 1020 0
DWIDTH 17 0
BBX 17 17 0 -2
BITMAP
FFE000
FFE000
F0F800
F0F800
F0F800
F0F800
FFFE00
FFE600
FFE600
F01E00
F01E00
F0FF80
F0FF80
F01E00
F01E00
F01F80
F01F80
ENDCHAR
STARTCHAR 2190
ENCODING 8592
SWIDTH 1020 0
DWIDTH 17 0
BBX 15 11 0 2
BITMAP
0F80
0F80
3C00
3C00
FFFE
FFFE
FFFE
3C00
3C00
0F80
0F80
ENDCHAR
STARTCHAR 2191
ENCODING 8593
SWIDTH 1020 0
DWIDTH 17 0
BBX 13 15 2 0
BITMAP
0F80
0F80
3FE0
3FE0
FFF8
FFF8
FFF8
0F80
0F80
0F80
0F80
0F80
0F80
0F80
0F80
ENDCHAR
STARTCHAR 2192
ENCODING 8594
SWIDTH 1020 0
DWIDTH 17 0
BBX 15 11 0 2
BITMAP
03E0
03E0
00F8
00F8
FFFE
FFFE
FFFE
00F8
00F8
03E0
03E0
ENDCHAR
STARTCHAR 2193
ENCODING 8595
SWIDTH 1020 0
DWIDTH 17 0
BBX 13 15 2 0
BITMAP
0F80
0F80
0F80
0F80
0F80
0F80
0F80
0F80
0F80
FFF8
FFF8
3FE0
3FE0
0F80
0F80
ENDCHAR
STARTCHAR 2194
ENCODING 8596
SWIDTH 1020 0
DWIDTH 17 0
BBX 17 11 0 2
BITMAP
0C1800
0C1800
3C1E00
3C1E00
FFFF80
FFFF80
FFFF80
3C1E00
3C1E00
0C1800
0C1800
ENDCHAR
STARTCHAR 2195
ENCODING 8597
SWIDTH 1020 0
DWIDTH 17 0
BBX 13 17 2 -2
BITMAP
0F80
0F80
3FE0
3FE0
FFF8
FFF8
FFF8
0F80
0F80
0F80
0F80
FFF8
FFF8
3FE0
3FE0
0F80
0F80
ENDCHAR
STARTCHAR 21A8
ENCODING 8616
SWIDTH 1020 0
DWIDTH 17 0
BBX 17 17 0 -2
BITMAP
03E000
03E000
0FF800
0FF800
3FFE00
3FFE00
3FFE00
03E000
03E000
3FFE00
3FFE00
0FF800
0FF800
03E000
03E000
FFFF80
FFFF80
ENDCHAR
STARTCHAR 2219
ENCODING 8729
SWIDTH 1020 0
DWIDTH 17 0
BBX 5 5 6 4
BITMAP
F8
F8
F8
F8
F8
ENDCHAR
STARTCHAR 221A
ENCODING 8730
SWIDTH 1020 0
DWIDTH 17 0
BBX 17 17 0 -2
BITMAP
00FF80
00FF80
00F800
00F800
00F800
00F800
00F800
00F800
00F800
FCF800
FCF800
3CF800
3CF800
0FF800
0FF800
03F800
03F800
ENDCHAR
STARTCHAR 221E
ENCODING 8734
SWIDTH 1020 0
DWIDTH 17 0
BBX 17 9 0 2
BITMAP
3FFE00
3FFE00
FFFF80
F3E780
F3E780
F3E780
F3E780
3FFE00
3FFE00
ENDCHAR
STARTCHAR 221F
ENCODING 8735
SWIDTH 1020 0
DWIDTH 17 0
BBX 15 9 0 2
BITMAP
F000
F000
F000
F000
F000
F000
F000
FFFE
FFFE
ENDCHAR
STARTCHAR 2229
ENCODING 8745
SWIDTH 1020 0
DWIDTH 17 0
BBX 13 15 0 0
BITMAP
3FE0
3FE0
F0F8
F0F8
F0F8
F0F8
F0F8
F0F8
F0F8
F0F8
F0F8
F0F8
F0F8
F0F8
F0F8
ENDCHAR
STARTCHAR 2248
ENCODING 8776
SWIDTH 1020 0
DWIDTH 17 0
BBX 15 11 0 2
BITMAP
3F9E
3F9E
F3F8
F3F8
F3F8
0000
0000
3F9E
3F9E
F3F8
F3F8
ENDCHAR
STARTCHAR 2261
ENCODING 8801
SWIDTH 1020 0
DWIDTH 17 0
BBX 13 11 0 2
BITMAP
FFF8
FFF8
0000
0000
FFF8
FFF8
FFF8
0000
0000
FFF8
FFF8
ENDCHAR
STARTCHAR 2264
ENCODING 8804
SWIDTH 1020 0
DWIDTH 17 0
BBX 13 15 0 0
BITMAP
03E0
03E0
0F80
0F80
3C00
3C00
3F80
0F80
0F80
03E0
03E0
0000
0000
FFF8
FFF8
ENDCHAR
STARTCHAR 2265
ENCODING 8805
SWIDTH 1020 0
DWIDTH 17 0
BBX 13 15 0 0
BITMAP
3C00
3C00
0F80
0F80
03E0
03E0
0FE0
0F80
0F80
3C00
3C00
0000
0000
FFF8
FFF8
ENDCHAR
STARTCHAR 2302
ENCODING 8962
SWIDTH 1020 0
DWIDTH 17 0
BBX 15 13 0 0
BITMAP
0380
0380
0FE0
0FE0
3FF8
3CF8
3CF8
F01E
F01E
F01E
F01E
FFFE
FFFE
ENDCHAR
STARTCHAR 2310
ENCODING 8976
SWIDTH 1020 0
DWIDTH 17 0
BBX 13 7 0 2
BITMAP
FFF8
FFF8
FFF8
F000
F000
F000
F000
ENDCHAR
STARTCHAR 2320
ENCODING 8992
SWIDTH 1020 0
DWIDTH 17 0
BBX 11 17 6 -2
BITMAP
3F80
3F80
F9E0
F9E0
F9E0
F9E0
F9E0
F800
F800
F800
F800
F800
F800
F800
F800
F800
F800
ENDCHAR
STARTCHAR 2321
ENCODING 8993
SWIDTH 1020 0
DWIDTH 17 0
BBX 11 17 0 -2
BITMAP
03E0
03E0
03E0
03E0
03E0
03E0
03E0
03E0
03E0
03E0
03E0
F3E0
F3E0
F3E0
F3E0
3F80
3F80
ENDCHAR
STARTCHAR 2500
ENCODING 9472
SWIDTH 1020 0
DWIDTH 17 0
BBX 17 2 0 4
BITMAP
FFFF80
FFFF80
ENDCHAR
STARTCHAR 2502
ENCODING 9474
SWIDTH 1020 0
DWIDTH 17 0
BBX 5 17 6 -2
BITMAP
F8
F8
F8
F8
F8
F8
F8
F8
F8
F8
F8
F8
F8
F8
F8
F8
F8
ENDCHAR
STARTCHAR 250C
ENCODING 9484
SWIDTH 1020 0
DWIDTH 17 0
BBX 11 8 6 -2
BITMAP
FFE0
FFE0
F800
F800
F800
F800
F800
F800
ENDCHAR
STARTCHAR 2510
ENCODING 9488
SWIDTH 1020 0
DWIDTH 17 0
BBX 11 8 0 -2
BITMAP
FFE0
FFE0
03E0
03E0
03E0
03E0
03E0
03E0
ENDCHAR
STARTCHAR 2514
ENCODING 9492
SWIDTH 1020 0
DWIDTH 17 0
BBX 11 11 6 4
BITMAP
F800
F800
F800
F800
F800
F800
F800
F800
F800
FFE0
FFE0
ENDCHAR
STARTCHAR 2518
ENCODING 9496
SWIDTH 1020 0
DWIDTH 17 0
BBX 11 11 0 4
BITMAP
03E0
03E0
03E0
03E0
03E0
03E0
03E0
03E0
03E0
FFE0
FFE0
ENDCHAR
STARTCHAR 251C
ENCODING 9500
SWIDTH 1020 0
DWIDTH 17 0
BBX 11 17 6 -2
BITMAP
F800
F800
F800
F800
F800
F800
F800
F800
F800
FFE0
FFE0
F800
F800
F800
F800
F800
F800
ENDCHAR
STARTCHAR 2524
ENCODING 9508
SWIDTH 1020 0
DWIDTH 17 0
BBX 11 17 0 -2
BITMAP
03E0
03E0
03E0
03E0
03E0
03E0
03E0
03E0
03E0
FFE0
FFE0
03E0
03E0
03E0
03E0
03E0
03E0
ENDCHAR
STARTCHAR 252C
ENCODING 9516
SWIDTH 1020 0
DWIDTH 17 0
BBX 17 8 0 -2
BITMAP
FFFF80
FFFF80
03E000
03E000
03E000
03E000
03E000
03E000
ENDCHAR
STARTCHAR 2534
ENCODING 9524
SWIDTH 1020 0
DWIDTH 17 0
BBX 17 11 0 4
BITMAP
03E000
03E000
03E000
03E000
03E000
03E000
03E000
03E000
03E000
FFFF80
FFFF80
ENDCHAR
STARTCHAR 253C
ENCODING 9532
SWIDTH 1020 0
DWIDTH 17 0
BBX 17 17 0 -2
BITMAP
03E000
03E000
03E000
03E000
03E000
03E000
03E000
03E000
03E000
FFFF80
FFFF80
03E000
03E000
03E000
03E000
03E000
03E000
ENDCHAR
STARTCHAR 2550
ENCODING 9552
SWIDTH 1020 0
DWIDTH 17 0
BBX 17 7 0 4
BITMAP
FFFF80
FFFF80
FFFF80
000000
000000
FFFF80
FFFF80
ENDCHAR
STARTCHAR 2551
ENCODING 9553
SWIDTH 1020 0
DWIDTH 17 0
BBX 11 17 4 -2
BITMAP
F9E0
F9E0
F9E0
F9E0
F9E0
F9E0
F9E0
F9E0
F9E0
F9E0
F9E0
F9E0
F9E0
F9E0
F9E0
F9E0
F9E0
ENDCHAR
STARTCHAR 2552
ENCODING 9554
SWIDTH 1020 0
DWIDTH 17 0
BBX 11 13 6 -2
BITMAP
FFE0
FFE0
FFE0
F800
F800
FFE0
FFE0
F800
F800
F800
F800
F800
F800
ENDCHAR
STARTCHAR 2553
ENCODING 9555
SWIDTH 1020 0
DWIDTH 17 0
BBX 13 8 4 -2
BITMAP
FFF8
FFF8
F9E0
F9E0
F9E0
F9E0
F9E0
F9E0
ENDCHAR
STARTCHAR 2554
ENCODING 9556
SWIDTH 1020 0
DWIDTH 17 0
BBX 13 13 4 -2
BITMAP
FFF8
FFF8
FFF8
F800
F800
F9F8
F9F8
F9E0
F9E0
F9E0
F9E0
F9E0
F9E0
ENDCHAR
STARTCHAR 2555
ENCODING 9557
SWIDTH 1020 0
DWIDTH 17 0
BBX 11 13 0 -2
BITMAP
FFE0
FFE0
FFE0
03E0
03E0
FFE0
FFE0
03E0
03E0
03E0
03E0
03E0
03E0
ENDCHAR
STARTCHAR 2556
ENCODING 9558
SWIDTH 1020 0
DWIDTH 17 0
BBX 15 8 0 -2
BITMAP
FFFE
FFFE
0F9E
0F9E
0F9E
0F9E
0F9E
0F9E
ENDCHAR
STARTCHAR 2557
ENCODING 9559
SWIDTH 1020 0
DWIDTH 17 0
BBX 15 13 0 -2
BITMAP
FFFE
FFFE
FFFE
001E
001E
FF9E
FF9E
0F9E
0F9E
0F9E
0F9E
0F9E
0F9E
ENDCHAR
STARTCHAR 2558
ENCODING 9560
SWIDTH 1020 0
DWIDTH 17 0
BBX 11 11 6 4
BITMAP
F800
F800
F800
F800
FFE0
FFE0
FFE0
F800
F800
FFE0
FFE0
ENDCHAR
STARTCHAR 2559
ENCODING 9561
SWIDTH 1020 0
DWIDTH 17 0
BBX 13 11 4 4
BITMAP
F9E0
F9E0
F9E0
F9E0
F9E0
F9E0
F9E0
F9E0
F9E0
FFF8
FFF8
ENDCHAR
STARTCHAR 255A
ENCODING 9562
SWIDTH 1020 0
DWIDTH 17 0
BBX 13 11 4 4
BITMAP
F9E0
F9E0
F9E0
F9E0
F9F8
F9F8
F9F8
F800
F800
FFF8
FFF8
ENDCHAR
STARTCHAR 255B
ENCODING 9563
SWIDTH 1020 0
DWIDTH 17 0
BBX 11 11 0 4
BITMAP
03E0
03E0
03E0
03E0
FFE0
FFE0
FFE0
03E0
03E0
FFE0
FFE0
ENDCHAR
STARTCHAR 255C
ENCODING 9564
SWIDTH 1020 0
DWIDTH 17 0
BBX 15 11 0 4
BITMAP
0F9E
0F9E
0F9E
0F9E
0F9E
0F9E
0F9E
0F9E
0F9E
FFFE
FFFE
ENDCHAR
STARTCHAR 255D
ENCODING 9565
SWIDTH 1020 0
DWIDTH 17 0
BBX 15 11 0 4
BITMAP
0F9E
0F9E
0F9E
0F9E
FF9E
FF9E
FF9E
001E
001E
FFFE
FFFE
ENDCHAR
STARTCHAR 255E
ENCODING 9566
SWIDTH 1020 0
DWIDTH 17 0
BBX 11 17 6 -2
BITMAP
F800
F800
F800
F800
FFE0
FFE0
FFE0
F800
F800
FFE0
FFE0
F800
F800
F800
F800
F800
F800
ENDCHAR
STARTCHAR 255F
ENCODING 9567
SWIDTH 1020 0
DWIDTH 17 0
BBX 13 17 4 -2
BITMAP
F9E0
F9E0
F9E0
F9E0
F9E0
F9E0
F9E0
F9E0
F9E0
F9F8
F9F8
F9E0
F9E0
F9E0
F9E0
F9E0
F9E0
ENDCHAR
STARTCHAR 2560
ENCODING 9568
SWIDTH 1020 0
DWIDTH 17 0
BBX 13 17 4 -2
BITMAP
F9E0
F9E0
F9E0
F9E0
F9F8
F9F8
F9F8
F800
F800
F9F8
F9F8
F9E0
F9E0
F9E0
F9E0
F9E0
F9E0
ENDCHAR
STARTCHAR 2561
ENCODING 9569
SWIDTH 1020 0
DWIDTH 17 0
BBX 11 17 0 -2
BITMAP
03E0
03E0
03E0
03E0
FFE0
FFE0
FFE0
03E0
03E0
FFE0
FFE0
03E0
03E0
03E0
03E0
03E0
03E0
ENDCHAR
STARTCHAR 2562
ENCODING 9570
SWIDTH 1020 0
DWIDTH 17 0
BBX 15 17 0 -2
BITMAP
0F9E
0F9E
0F9E
0F9E
0F9E
0F9E
0F9E
0F9E
0F9E
FF9E
FF9E
0F9E
0F9E
0F9E
0F9E
0F9E
0F9E
ENDCHAR
STARTCHAR 2563
ENCODING 9571
SWIDTH 1020 0
DWIDTH 17 0
BBX 15 17 0 -2
BITMAP
0F9E
0F9E
0F9E
0F9E
FF9E
FF9E
FF9E
001E
001E
FF9E
FF9E
0F9E
0F9E
0F9E
0F9E
0F9E
0F9E
ENDCHAR
STARTCHAR 2564
ENCODING 9572
SWIDTH 1020 0
DWIDTH 17 0
BBX 17 13 0 -2
BITMAP
FFFF80
FFFF80
FFFF80
000000
000000
FFFF80
FFFF80
03E000
03E000
03E000
03E000
03E000
03E000
ENDCHAR
STARTCHAR 2565
ENCODING 9573
SWIDTH 1020 0
DWIDTH 17 0
BBX 17 8 0 -2
BITMAP
FFFF80
FFFF80
0F9E00
0F9E00
0F9E00
0F9E00
0F9E00
0F9E00
ENDCHAR
STARTCHAR 2566
ENCODING 9574
SWIDTH 1020 0
DWIDTH 17 0
BBX 17 13 0 -2
BITMAP
FFFF80
FFFF80
FFFF80
000000
000000
FF9F80
FF9F80
0F9E00
0F9E00
0F9E00
0F9E00
0F9E00
0F9E00
ENDCHAR
STARTCHAR 2567
ENCODING 9575
SWIDTH 1020 0
DWIDTH 17 0
BBX 17 11 0 4
BITMAP
03E000
03E000
03E000
03E000
FFFF80
FFFF80
FFFF80
000000
000000
FFFF80
FFFF80
ENDCHAR
STARTCHAR 2568
ENCODING 9576
SWIDTH 1020 0
DWIDTH 17 0
BBX 17 11 0 4
BITMAP
0F9E00
0F9E00
0F9E00
0F9E00
0F9E00
0F9E00
0F9E00
0F9E00
0F9E00
FFFF80
FFFF80
ENDCHAR
STARTCHAR 2569
ENCODING 9577
SWIDTH 1020 0
DWIDTH 17 0
BBX 17 11 0 4
BITMAP
0F9E00
0F9E00
0F9E00
0F9E00
FF9F80
FF9F80
FF9F80
000000
000000
FFFF80
FFFF80
ENDCHAR
STARTCHAR 256A
ENCODING 9578
SWIDTH 1020 0
DWIDTH 17 0
BBX 17 17 0 -2
BITMAP
03E000
03E000
03E000
03E000
FFFF80
FFFF80
FFFF80
03E000
03E000
FFFF80
FFFF80
03E000
03E000
03E000
03E000
03E000
03E000
ENDCHAR
STARTCHAR 256B
ENCODING 9579
SWIDTH 1020 0
DWIDTH 17 0
BBX 17 17 0 -2
BITMAP
0F9E00
0F9E00
0F9E00
0F9E00
0F9E00
0F9E00
0F9E00
0F9E00
0F9E00
FFFF80
FFFF80
0F9E00
0F9E00
0F9E00
0F9E00
0F9E00
0F9E00
ENDCHAR
STARTCHAR 256C
ENCODING 9580
SWIDTH 1020 0
DWIDTH 17 0
BBX 17 17 0 -2
BITMAP
0F9E00
0F9E00
0F9E00
0F9E00
FF9F80
FF9F80
FF9F80
000000
000000
FF9F80
FF9F80
0F9E00
0F9E00
0F9E00
0F9E00
0F9E00
0F9E00
ENDCHAR
STARTCHAR 2580
ENCODING 9600
SWIDTH 1020 0
DWIDTH 17 0
BBX 17 9 0 6
BITMAP
FFFF80
FFFF80
FFFF80
FFFF80
FFFF80
FFFF80
FFFF80
FFFF80
FFFF80
ENDCHAR
STARTCHAR 2584
ENCODING 9604
SWIDTH 1020 0
DWIDTH 17 0
BBX 17 8 0 -2
BITMAP
FFFF80
FFFF80
FFFF80
FFFF80
FFFF80
FFFF80
FFFF80
FFFF80
ENDCHAR
STARTCHAR 2588
ENCODING 9608
SWIDTH 1020 0
DWIDTH 17 0
BBX 17 17 0 -2
BITMAP
FFFF80
FFFF80
FFFF80
FFFF80
FFFF80
FFFF80
FFFF80
FFFF80
FFFF80
FFFF80
FFFF80
FFFF80
FFFF80
FFFF80
FFFF80
FFFF80
FFFF80
ENDCHAR
STARTCHAR 258C
ENCODING 9612
SWIDTH 1020 0
DWIDTH 17 0
BBX 9 17 0 -2
BITMAP
FF80
FF80
FF80
FF80
FF80
FF80
FF80
FF80
FF80
FF80
FF80
FF80
FF80
FF80
FF80
FF80
FF80
ENDCHAR
STARTCHAR 2590
ENCODING 9616
SWIDTH 1020 0
DWIDTH 17 0
BBX 9 17 8 -2
BITMAP
FF80
FF80
FF80
FF80
FF80
FF80
FF80
FF80
FF80
FF80
FF80
FF80
FF80
FF80
FF80
FF80
FF80
ENDCHAR
STARTCHAR 2591
ENCODING 9617
SWIDTH 1020 0
DWIDTH 17 0
BBX 15 17 0 -2
BITMAP
0C06
0C06
C0E0
C0E0
0C06
0C06
CCE6
C0E0
C0E0
0C06
0C06
C0E0
C0E0
0C06
0C06
C0E0
C0E0
ENDCHAR
STARTCHAR 2592
ENCODING 9618
SWIDTH 1020 0
DWIDTH 17 0
BBX 17 17 0 -2
BITMAP
339980
339980
CCE600
CCE600
339980
339980
FFFF80
CCE600
CCE600
339980
339980
CCE600
CCE600
339980
339980
CCE600
CCE600
ENDCHAR
STARTCHAR 2593
ENCODING 9619
SWIDTH 1020 0
DWIDTH 17 0
BBX 17 17 0 -2
BITMAP
F3E780
F3E780
3F9F80
3F9F80
F3E780
F3E780
FFFF80
FCFE00
FCFE00
F3E780
F3E780
3F9F80
3F9F80
F3E780
F3E780
FCFE00
FCFE00
ENDCHAR
STARTCHAR 25A0
ENCODING 9632
SWIDTH 1020 0
DWIDTH 17 0
BBX 9 9 4 2
BITMAP
FF80
FF80
FF80
FF80
FF80
FF80
FF80
FF80
FF80
ENDCHAR
STARTCHAR 25AC
ENCODING 9644
SWIDTH 1020 0
DWIDTH 17 0
BBX 13 6 2 0
BITMAP
FFF8
FFF8
FFF8
FFF8
FFF8
FFF8
ENDCHAR
STARTCHAR 25B2
ENCODING 9650
SWIDTH 1020 0
DWIDTH 17 0
BBX 17 11 0 2
BITMAP
03E000
03E000
0FF800
0FF800
3FFE00
3FFE00
3FFE00
FFFF80
FFFF80
FFFF80
FFFF80
ENDCHAR
STARTCHAR 25BA
ENCODING 9658
SWIDTH 1020 0
DWIDTH 17 0
BBX 15 15 0 0
BITMAP
C000
C000
FC00
FC00
FFE0
FFE0
FFFE
FFFE
FFFE
FFE0
FFE0
FC00
FC00
C000
C000
ENDCHAR
STARTCHAR 25BC
ENCODING 9660
SWIDTH 1020 0
DWIDTH 17 0
BBX 17 11 0 2
BITMAP
FFFF80
FFFF80
FFFF80
FFFF80
FFFF80
3FFE00
3FFE00
0FF800
0FF800
03E000
03E000
ENDCHAR
STARTCHAR 25C4
ENCODING 9668
SWIDTH 1020 0
DWIDTH 17 0
BBX 15 15 0 0
BITMAP
0006
0006
00FE
00FE
0FFE
0FFE
FFFE
FFFE
FFFE
0FFE
0FFE
00FE
00FE
0006
0006
ENDCHAR
STARTCHAR 25CB
ENCODING 9675
SWIDTH 1020 0
DWIDTH 17 0
BBX 13 13 2 0
BITMAP
3FE0
3FE0
F078
F078
F078
C018
C018
C018
C018
F078
F078
3FE0
3FE0
ENDCHAR
STARTCHAR 25D8
ENCODING 9688
SWIDTH 1020 0
DWIDTH 17 0
BBX 17 17 0 -2
BITMAP
FFFF80
FFFF80
FFFF80
FFFF80
FC1F80
FC1F80
FC1F80
F00780
F00780
F00780
F00780
FC1F80
FC1F80
FFFF80
FFFF80
FFFF80
FFFF80
ENDCHAR
STARTCHAR 25D9
ENCODING 9689
SWIDTH 1020 0
DWIDTH 17 0
BBX 17 17 0 -2
BITMAP
FFFF80
FFFF80
F00780
F00780
C3E180
C3E180
CFF980
CFF980
CFF980
CFF980
CFF980
C3E180
C3E180
F00780
F00780
FFFF80
FFFF80
ENDCHAR
STARTCHAR 263A
ENCODING 9786
SWIDTH 1020 0
DWIDTH 17 0
BBX 17 17 0 -2
BITMAP
3FFE00
3FFE00
C00180
C00180
CC1980
CC1980
CC1980
C00180
C00180
CFF980
CFF980
C3E180
C3E180
C00180
C00180
3FFE00
3FFE00
ENDCHAR
STARTCHAR 263B
ENCODING 9787
SWIDTH 1020 0
DWIDTH 17 0
BBX 17 17 0 -2
BITMAP
3FFE00
3FFE00
FFFF80
FFFF80
F3E780
F3E780
FFFF80
FFFF80
FFFF80
F00780
F00780
FC1F80
FC1F80
FFFF80
FFFF80
3FFE00
3FFE00
ENDCHAR
STARTCHAR 263C
ENCODING 9788
SWIDTH 1020 0
DWIDTH 17 0
BBX 17 17 0 -2
BITMAP
C3E180
C3E180
33E600
33E600
0FF800
0FF800
FFFF80
FC1F80
FC1F80
FC1F80
FC1F80
0FF800
0FF800
33E600
33E600
C3E180
C3E180
ENDCHAR
STARTCHAR 2640
ENCODING 9792
SWIDTH 1020 0
DWIDTH 17 0
BBX 13 17 2 -2
BITMAP
3FE0
3FE0
F078
F078
F078
F078
F078
F078
F078
3FE0
3FE0
0F80
0F80
FFF8
FFF8
0F80
0F80
ENDCHAR
STARTCHAR 2642
ENCODING 9794
SWIDTH 1020 0
DWIDTH 17 0
BBX 17 17 0 -2
BITMAP
00FF80
00FF80
001F80
001F80
00FF80
00FF80
3FFF80
3FF980
3FF980
F0F800
F0F800
F0F800
F0F800
F0F800
F0F800
3FE000
3FE000
ENDCHAR
STARTCHAR 2660
ENCODING 9824
SWIDTH 1020 0
DWIDTH 17 0
BBX 15 17 0 -2
BITMAP
0380
0380
0380
0380
0FE0
0FE0
3FF8
3FF8
3FF8
FFFE
FFFE
3FF8
3FF8
0FE0
0FE0
3FF8
3FF8
ENDCHAR
STARTCHAR 2663
ENCODING 9827
SWIDTH 1020 0
DWIDTH 17 0
BBX 15 17 0 -2
BITMAP
0FE0
0FE0
3FF8
3FF8
0FE0
0FE0
FFFE
FFFE
FFFE
FFFE
FFFE
3FF8
3FF8
0FE0
0FE0
3FF8
3FF8
ENDCHAR
STARTCHAR 2665
ENCODING 9829
SWIDTH 1020 0
DWIDTH 17 0
BBX 15 15 0 0
BITMAP
3CF8
3CF8
FFFE
FFFE
FFFE
FFFE
FFFE
FFFE
FFFE
3FF8
3FF8
0FE0
0FE0
0380
0380
ENDCHAR
STARTCHAR 2666
ENCODING 9830
SWIDTH 1020 0
DWIDTH 17 0
BBX 15 15 0 0
BITMAP
0380
0380
0FE0
0FE0
3FF8
3FF8
FFFE
FFFE
FFFE
3FF8
3FF8
0FE0
0FE0
0380
0380
ENDCHAR
STARTCHAR 266A
ENCODING 9834
SWIDTH 1020 0
DWIDTH 17 0
BBX 17 17 0 -2
BITMAP
0FFF80
0FFF80
0F8780
0F8780
0FFF80
0FFF80
0FFF80
0F8000
0F8000
0F8000
0F8000
3F8000
3F8000
FF8000
FF8000
FC0000
FC0000
ENDCHAR
STARTCHAR 266B
ENCODING 9835
SWIDTH 1020 0
DWIDTH 17 0
BBX 17 17 0 -2
BITMAP
3FFF80
3FFF80
3C0780
3C0780
3FFF80
3FFF80
3FFF80
3C0780
3C0780
3C0780
3C0780
3C1F80
3C1F80
FC1E00
FC1E00
F00000
F00000
ENDCHAR
ENDFONT
